<svg width="18" height="25" viewBox="0 0 18 25" fill="none" xmlns="http://www.w3.org/2000/svg">
<path d="M10.0781 23.4375C9.51562 24.1406 8.4375 24.1406 7.875 23.4375C5.48438 20.3906 0 13.125 0 9C0 4.03125 4.03125 0 9 0C13.9688 0 18 4.03125 18 9C18 13.125 12.5156 20.3906 10.0781 23.4375ZM9 6C7.92188 6 6.9375 6.60938 6.375 7.5C5.85938 8.4375 5.85938 9.60938 6.375 10.5C6.9375 11.4375 7.92188 12 9 12C10.0312 12 11.0156 11.4375 11.5781 10.5C12.0938 9.60938 12.0938 8.4375 11.5781 7.5C11.0156 6.60938 10.0312 6 9 6Z" fill="#111213"/>
</svg>
