<svg width="18" height="21" viewBox="0 0 18 21" fill="none" xmlns="http://www.w3.org/2000/svg">
<path d="M5.9375 1.26428V2.82678H11.5625V1.26428C11.5625 0.75647 11.9531 0.326782 12.5 0.326782C13.0078 0.326782 13.4375 0.75647 13.4375 1.26428V2.82678H15C16.3672 2.82678 17.5 3.95959 17.5 5.32678V5.95178V7.82678V17.8268C17.5 19.233 16.3672 20.3268 15 20.3268H2.5C1.09375 20.3268 0 19.233 0 17.8268V7.82678V5.95178V5.32678C0 3.95959 1.09375 2.82678 2.5 2.82678H4.0625V1.26428C4.0625 0.75647 4.45312 0.326782 5 0.326782C5.50781 0.326782 5.9375 0.75647 5.9375 1.26428ZM1.875 7.82678V17.8268C1.875 18.1783 2.14844 18.4518 2.5 18.4518H15C15.3125 18.4518 15.625 18.1783 15.625 17.8268V7.82678H1.875Z" fill="#EA424C"/>
</svg>
