<svg xmlns="http://www.w3.org/2000/svg" width="20" height="18"><path d="M2.223 1.125C.996 1.125 0 2.133 0 3.375v11.25c0 1.242.996 2.25 2.223 2.25h15.554c1.227 0 2.223-1.008 2.223-2.25V3.375c0-1.242-.996-2.25-2.223-2.25Zm2.777 9h2.223c1.535 0 2.777 1.258 2.777 2.813 0 .308-.25.562-.555.562H2.777a.561.561 0 0 1-.554-.563c0-1.554 1.242-2.812 2.777-2.812ZM3.89 6.75c0-1.242.993-2.25 2.22-2.25 1.23 0 2.222 1.008 2.222 2.25S7.34 9 6.109 9C4.883 9 3.891 7.992 3.891 6.75Zm8.887-1.125h4.446c.304 0 .554.254.554.563 0 .308-.25.562-.554.562h-4.446a.561.561 0 0 1-.554-.563c0-.308.25-.562.554-.562Zm0 2.25h4.446c.304 0 .554.254.554.563 0 .308-.25.562-.554.562h-4.446a.561.561 0 0 1-.554-.563c0-.308.25-.562.554-.562Zm0 2.25h4.446c.304 0 .554.254.554.563 0 .308-.25.562-.554.562h-4.446a.561.561 0 0 1-.554-.563c0-.308.25-.562.554-.562Zm0 0" style="stroke:none;fill-rule:nonzero;fill:#000;fill-opacity:1"/></svg>
