<svg width="10" height="11" viewBox="0 0 10 11" fill="none" xmlns="http://www.w3.org/2000/svg">
<path d="M9.0625 5.75C9.0625 4.30469 8.28125 2.97656 7.03125 2.23438C5.76172 1.51172 4.21875 1.51172 2.96875 2.23438C1.69922 2.97656 0.9375 4.30469 0.9375 5.75C0.9375 7.21484 1.69922 8.54297 2.96875 9.28516C4.21875 10.0078 5.76172 10.0078 7.03125 9.28516C8.28125 8.54297 9.0625 7.21484 9.0625 5.75ZM0 5.75C0 3.97266 0.9375 2.33203 2.5 1.43359C4.04297 0.535156 5.9375 0.535156 7.5 1.43359C9.04297 2.33203 10 3.97266 10 5.75C10 7.54688 9.04297 9.1875 7.5 10.0859C5.9375 10.9844 4.04297 10.9844 2.5 10.0859C0.9375 9.1875 0 7.54688 0 5.75ZM4.53125 3.09375C4.53125 2.83984 4.72656 2.625 5 2.625C5.25391 2.625 5.46875 2.83984 5.46875 3.09375V5.51562L7.12891 6.60938C7.34375 6.76562 7.40234 7.05859 7.26562 7.27344C7.10938 7.48828 6.81641 7.54688 6.60156 7.39062L4.72656 6.14062C4.60938 6.0625 4.53125 5.90625 4.53125 5.75V3.09375Z" fill="#868693"/>
</svg>
