<svg width="211" height="30" viewBox="0 0 211 30" fill="none" xmlns="http://www.w3.org/2000/svg">
<g clip-path="url(#clip0_1_21)">
<path d="M60 0H0V30H60V0Z" fill="#EA424C"/>
<path d="M0.333336 0H7V30H0.333336V0Z" fill="white"/>
<path d="M3.81333 0V1.08667H3.52V0H3.81333ZM0.0666656 1.9H0.593332V1.46667H0.859999V0.94H1.23333V0.48H1.54V0H2.46667V0.48H2.76667V0.94H3.14V1.46667H3.40667V1.9H3.81333V2.57333H3.40667V3.00667H3.14V3.53333H2.76667V3.99333H2.46667V4.48667H2.25333V4.9H1.75333V4.48667H1.54V3.99333H1.23333V3.53333H0.859999V3.00667H0.593332V2.57333H0.0666656M0.0666656 0.226667H0.593332V0.826667H0.0666656M2.13333 1.00667H1.86V1.41333H1.6V1.92667H1.34667V2.56H1.6V3.07333H1.86V3.47333H2.13333V3.07333H2.39333V2.56H2.65333V1.92667H2.39333V1.41333H2.13333V1.00667ZM2.16 1.93333V2.53333H1.83333V1.93333H2.16ZM0.0666656 3.50667H0.593332V4.15333H0.0666656M3.81333 3.56667V4.48H3.52V3.56667H3.81333ZM3.09333 4.58V5.03333H3.41333V5.5H3.81333V6.11333H3.41333V6.58667H3.09333V7.04H2.72V6.58667H2.4V6.11333H2.13333V5.5H2.4V5.03333H2.72V4.58H3.09333ZM0.0666656 5.5H0.593332V5.03333H0.913332V4.58H1.28V5.03333H1.6V5.5H1.86667V6.11333H1.6V6.58667H1.28V7.04H0.913332V6.58667H0.593332V6.11333H0.0666656M3.04667 5.51333H2.77333V6.09333H3.04667V5.51333ZM1.24 5.51333H0.966666V6.09333H1.24V5.51333ZM1.34667 15.12V14.8067H1.12V14.3333H0.819999V14.0467H0.593332V13.5867H0.0666656V12.52H0.593332V12.8267H0.819999V13.2733H1.12V13.8067H1.54667V13.3267H1.86V12.9733H2.08667V12.5533H2.38667V12.1067H2.60667V11.6533H2.82V11.1867H3.10667V10.56H2.72667V9.99333H2.31333V9.65333H1.62V10.1467H2.02V10.5933H1.75333V11.14H1.44V11.62H1.04667V11.14H0.719999V10.5933H0.519999V10.1467H0.0666656V9.3H0.593332V8.75333H0.793332V8.33333H0.979999V7.85333H1.24667V7.38H1.50667V7.06667H1.82V6.59333H2.2V7.06667H2.51333V7.38H2.78V7.85333H3.04V8.33333H3.25333V8.74667H3.46667V9.10667H3.81333V11.7533H3.42V12.2H3.30667V12.6667H3.01333V13.12H2.83333V13.4533H2.64667V13.8067H2.32667V14.1533H1.86667V15.12M3.81333 7.03333V7.94667H3.52V7.03333H3.81333ZM0.0666656 7.20667H0.593332V7.85333H0.0666656M0.0666656 11.0933H0.593332V11.74H0.0666656V11.0933ZM3.8 12.7333V13.32H3.52V12.7333H3.8ZM3.41333 15.12V14.7533H3.24V14.4667H2.98667V13.6067H3.24V13.9533H3.50667V14.46H3.8V15.1133M2.37333 15.1133V14.6867H2.65333V15.1133" fill="#EA424C"/>
<path d="M3.52 0V1.08667H3.81333V0H3.52ZM7.26666 1.9H6.74V1.46667H6.47333V0.94H6.1V0.48H5.79333V0H4.86666V0.48H4.56666V0.94H4.19333V1.46667H3.92666V1.9H3.52V2.57333H3.92666V3.00667H4.19333V3.53333H4.56666V3.99333H4.86666V4.48667H5.08V4.9H5.58V4.48667H5.79333V3.99333H6.1V3.53333H6.47333V3.00667H6.74V2.57333H7.26666M7.26666 0.226667H6.74V0.826667H7.26666M5.2 1.00667H5.47333V1.41333H5.73333V1.92667H5.98666V2.56H5.73333V3.07333H5.47333V3.47333H5.2V3.07333H4.94V2.56H4.68V1.92667H4.94V1.41333H5.2V1.00667ZM5.17333 1.93333V2.53333H5.5V1.93333H5.17333ZM7.26666 3.50667H6.74V4.15333H7.26666M3.52 3.56667V4.48H3.81333V3.56667H3.52ZM4.24 4.58V5.03333H3.92V5.5H3.52V6.11333H3.92V6.58667H4.24V7.04H4.61333V6.58667H4.93333V6.11333H5.2V5.5H4.93333V5.03333H4.61333V4.58H4.24ZM7.26666 5.5H6.74V5.03333H6.42V4.58H6.05333V5.03333H5.73333V5.5H5.46666V6.11333H5.73333V6.58667H6.05333V7.04H6.42V6.58667H6.74V6.11333H7.26666M4.28666 5.51333H4.56V6.09333H4.28666V5.51333ZM6.09333 5.51333H6.36666V6.09333H6.09333V5.51333ZM5.98666 15.12V14.8067H6.21333V14.3333H6.51333V14.0467H6.74V13.5867H7.26666V12.52H6.74V12.8267H6.51333V13.2733H6.21333V13.8067H5.78666V13.3267H5.47333V12.9733H5.24666V12.5533H4.94666V12.1067H4.72666V11.6533H4.51333V11.1867H4.22666V10.56H4.60666V9.99333H5.02V9.65333H5.71333V10.1467H5.31333V10.5933H5.58V11.14H5.89333V11.62H6.28666V11.14H6.61333V10.5933H6.81333V10.1467H7.26666V9.3H6.74V8.75333H6.54V8.33333H6.35333V7.85333H6.08666V7.38H5.82666V7.06667H5.51333V6.59333H5.13333V7.06667H4.82V7.38H4.55333V7.85333H4.29333V8.33333H4.08V8.74667H3.86666V9.10667H3.52V11.7533H3.91333V12.2H4.02666V12.6667H4.32V13.12H4.5V13.4533H4.68666V13.8067H5.00666V14.1533H5.46666V15.12M3.52 7.03333V7.94667H3.81333V7.03333H3.52ZM7.26666 7.20667H6.74V7.85333H7.26666M7.26666 11.0933H6.74V11.74H7.26666V11.0933ZM3.53333 12.7333V13.32H3.81333V12.7333H3.53333ZM3.92 15.12V14.7533H4.09333V14.4667H4.34666V13.6067H4.09333V13.9533H3.82666V14.46H3.53333V15.1133M4.96 15.1133V14.6867H4.68V15.1133" fill="#EA424C"/>
<path d="M3.81333 30V28.9133H3.52V30H3.81333ZM0.0666656 28.1H0.593332V28.5333H0.859999V29.06H1.23333V29.52H1.54V30H2.46667V29.52H2.76667V29.06H3.14V28.5333H3.40667V28.1H3.81333V27.4267H3.40667V26.9933H3.14V26.4667H2.76667V26.0067H2.46667V25.5133H2.25333V25.1H1.75333V25.5133H1.54V26.0067H1.23333V26.4667H0.859999V26.9933H0.593332V27.4267H0.0666656M0.0666656 29.7733H0.593332V29.1733H0.0666656M2.13333 28.9933H1.86V28.5867H1.6V28.0733H1.34667V27.44H1.6V26.9267H1.86V26.5267H2.13333V26.9267H2.39333V27.44H2.65333V28.0733H2.39333V28.5867H2.13333V28.9933ZM2.16 28.0667V27.4667H1.83333V28.0667H2.16ZM0.0666656 26.4933H0.593332V25.8467H0.0666656M3.81333 26.4333V25.52H3.52V26.4333H3.81333ZM3.09333 25.42V24.9667H3.41333V24.5H3.81333V23.8867H3.41333V23.4133H3.09333V22.96H2.72V23.4133H2.4V23.8867H2.13333V24.5H2.4V24.9667H2.72V25.42H3.09333ZM0.0666656 24.5H0.593332V24.9667H0.913332V25.42H1.28V24.9667H1.6V24.5H1.86667V23.8867H1.6V23.4133H1.28V22.96H0.913332V23.4133H0.593332V23.8867H0.0666656M3.04667 24.4867H2.77333V23.9067H3.04667V24.4867ZM1.24 24.4867H0.966666V23.9067H1.24V24.4867ZM1.34667 14.88V15.1933H1.12V15.6667H0.819999V15.9533H0.593332V16.4133H0.0666656V17.48H0.593332V17.1733H0.819999V16.7267H1.12V16.1933H1.54667V16.6733H1.86V17.0267H2.08667V17.4467H2.38667V17.8933H2.60667V18.3467H2.82V18.8133H3.10667V19.44H2.72667V20.0067H2.31333V20.3467H1.62V19.8533H2.02V19.4067H1.75333V18.86H1.44V18.38H1.04667V18.86H0.719999V19.4067H0.519999V19.8533H0.0666656V20.7H0.593332V21.2467H0.793332V21.6667H0.979999V22.1467H1.24667V22.62H1.50667V22.9333H1.82V23.4067H2.2V22.9333H2.51333V22.62H2.78V22.1467H3.04V21.6667H3.25333V21.2533H3.46667V20.8933H3.81333V18.2467H3.42V17.8H3.30667V17.3333H3.01333V16.88H2.83333V16.5467H2.64667V16.1933H2.32667V15.8467H1.86667V14.88M3.81333 22.9667V22.0533H3.52V22.9667H3.81333ZM0.0666656 22.7933H0.593332V22.1467H0.0666656M0.0666656 18.9067H0.593332V18.26H0.0666656V18.9067ZM3.8 17.2667V16.68H3.52V17.2667H3.8ZM3.41333 14.88V15.2467H3.24V15.5333H2.98667V16.3933H3.24V16.0467H3.50667V15.54H3.8V14.8867M2.37333 14.8867V15.3133H2.65333V14.8867" fill="#EA424C"/>
<path d="M3.52 30V28.9133H3.81333V30H3.52ZM7.26666 28.1H6.74V28.5333H6.47333V29.06H6.1V29.52H5.79333V30H4.86666V29.52H4.56666V29.06H4.19333V28.5333H3.92666V28.1H3.52V27.4267H3.92666V26.9933H4.19333V26.4667H4.56666V26.0067H4.86666V25.5133H5.08V25.1H5.58V25.5133H5.79333V26.0067H6.1V26.4667H6.47333V26.9933H6.74V27.4267H7.26666M7.26666 29.7733H6.74V29.1733H7.26666M5.2 28.9933H5.47333V28.5867H5.73333V28.0733H5.98666V27.44H5.73333V26.9267H5.47333V26.5267H5.2V26.9267H4.94V27.44H4.68V28.0733H4.94V28.5867H5.2V28.9933ZM5.17333 28.0667V27.4667H5.5V28.0667H5.17333ZM7.26666 26.4933H6.74V25.8467H7.26666M3.52 26.4333V25.52H3.81333V26.4333H3.52ZM4.24 25.42V24.9667H3.92V24.5H3.52V23.8867H3.92V23.4133H4.24V22.96H4.61333V23.4133H4.93333V23.8867H5.2V24.5H4.93333V24.9667H4.61333V25.42H4.24ZM7.26666 24.5H6.74V24.9667H6.42V25.42H6.05333V24.9667H5.73333V24.5H5.46666V23.8867H5.73333V23.4133H6.05333V22.96H6.42V23.4133H6.74V23.8867H7.26666M4.28666 24.4867H4.56V23.9067H4.28666V24.4867ZM6.09333 24.4867H6.36666V23.9067H6.09333V24.4867ZM5.98666 14.88V15.1933H6.21333V15.6667H6.51333V15.9533H6.74V16.4133H7.26666V17.48H6.74V17.1733H6.51333V16.7267H6.21333V16.1933H5.78666V16.6733H5.47333V17.0267H5.24666V17.4467H4.94666V17.8933H4.72666V18.3467H4.51333V18.8133H4.22666V19.44H4.60666V20.0067H5.02V20.3467H5.71333V19.8533H5.31333V19.4067H5.58V18.86H5.89333V18.38H6.28666V18.86H6.61333V19.4067H6.81333V19.8533H7.26666V20.7H6.74V21.2467H6.54V21.6667H6.35333V22.1467H6.08666V22.62H5.82666V22.9333H5.51333V23.4067H5.13333V22.9333H4.82V22.62H4.55333V22.1467H4.29333V21.6667H4.08V21.2533H3.86666V20.8933H3.52V18.2467H3.91333V17.8H4.02666V17.3333H4.32V16.88H4.5V16.5467H4.68666V16.1933H5.00666V15.8467H5.46666V14.88M3.52 22.9667V22.0533H3.81333V22.9667H3.52ZM7.26666 22.7933H6.74V22.1467H7.26666M7.26666 18.9067H6.74V18.26H7.26666V18.9067ZM3.53333 17.2667V16.68H3.81333V17.2667H3.53333ZM3.92 14.88V15.2467H4.09333V15.5333H4.34666V16.3933H4.09333V16.0467H3.82666V15.54H3.53333V14.8867M4.96 14.8867V15.3133H4.68V14.8867" fill="#EA424C"/>
<path d="M7 20H60V30H7V20Z" fill="#009739"/>
</g>
<path d="M70.2 0.32H72.15L75.585 9.365L78.9 0.32H80.865V11H79.53V2.09L76.185 11H74.955L71.55 2.09V11H70.2V0.32ZM87.7364 0.32L91.9064 11H90.3314L89.1464 7.73H84.6614L83.4464 11H81.9464L86.1464 0.32H87.7364ZM88.7264 6.605L86.9114 1.67L85.0664 6.605H88.7264ZM93.038 0.32H97.418C98.513 0.32 99.383 0.574999 100.028 1.07C100.658 1.565 100.988 2.345 100.988 3.395C100.988 5.555 99.773 6.62 97.343 6.62H94.448V11H93.038V0.32ZM94.433 1.535V5.435H97.148C97.913 5.435 98.513 5.3 98.933 5.015C99.353 4.73 99.563 4.22 99.563 3.485C99.563 3.08 99.503 2.735 99.368 2.465C99.233 2.195 99.038 2 98.768 1.865C98.513 1.745 98.243 1.655 97.958 1.61C97.688 1.565 97.343 1.535 96.953 1.535H94.433ZM110.115 0.32V1.55H106.53V11H105.12V1.55H101.535V0.32H110.115ZM120.618 0.32H122.028V11H120.618V0.32ZM119.283 7.835C119.283 8.84 118.983 9.62 118.413 10.175C117.843 10.73 117.033 11 115.998 11H111.318V0.32H112.728V4.655H115.998C117.048 4.655 117.858 4.94 118.428 5.495C118.998 6.05 119.283 6.83 119.283 7.835ZM117.843 7.835C117.843 6.53 117.063 5.87 115.503 5.87H112.713V9.77H115.503C117.063 9.77 117.843 9.125 117.843 7.835ZM132.844 0.32V11H131.434V6.005H125.794V11H124.384V0.32H125.794V4.775H131.434V0.32H132.844ZM139.709 0.0649995C141.329 0.0649995 142.589 0.574999 143.489 1.595C144.389 2.615 144.839 3.935 144.839 5.57C144.839 7.22 144.389 8.585 143.504 9.65C142.604 10.73 141.344 11.255 139.724 11.255C138.884 11.255 138.149 11.105 137.489 10.805C136.829 10.505 136.289 10.1 135.869 9.56C135.449 9.035 135.134 8.435 134.924 7.745C134.714 7.07 134.609 6.335 134.609 5.54C134.609 3.875 135.059 2.54 135.989 1.55C136.919 0.559999 138.149 0.0649995 139.709 0.0649995ZM139.709 1.295C138.509 1.295 137.594 1.715 136.964 2.555C136.334 3.395 136.004 4.415 136.004 5.645C136.004 6.995 136.349 8.06 137.024 8.855C137.699 9.65 138.599 10.04 139.724 10.04C140.849 10.04 141.749 9.65 142.424 8.84C143.084 8.045 143.429 6.98 143.429 5.645C143.429 4.325 143.084 3.275 142.409 2.48C141.734 1.7 140.834 1.295 139.709 1.295ZM146.606 0.32L151.166 0.335C152.141 0.335 152.951 0.545 153.596 0.979999C154.241 1.4 154.571 2.075 154.571 3.005C154.571 3.53 154.421 3.995 154.136 4.415C153.851 4.835 153.476 5.12 152.996 5.3C153.656 5.45 154.151 5.75 154.511 6.23C154.871 6.695 155.051 7.28 155.051 7.985C155.051 9.995 153.701 11 151.001 11H146.606V0.32ZM147.986 1.535V4.91H150.521C150.806 4.91 151.046 4.895 151.256 4.88C151.466 4.865 151.691 4.835 151.961 4.775C152.216 4.715 152.426 4.625 152.576 4.505C152.726 4.385 152.861 4.22 152.981 4.01C153.101 3.785 153.146 3.515 153.146 3.215C153.146 2.9 153.101 2.63 152.996 2.42C152.906 2.21 152.786 2.045 152.636 1.925C152.501 1.805 152.306 1.73 152.066 1.67C151.826 1.61 151.601 1.565 151.406 1.55C151.211 1.535 150.956 1.535 150.656 1.535H147.986ZM147.986 6.02L147.971 9.83H150.791C151.151 9.83 151.436 9.815 151.646 9.8C151.871 9.785 152.126 9.74 152.396 9.68C152.666 9.605 152.891 9.5 153.041 9.365C153.206 9.23 153.341 9.035 153.446 8.78C153.566 8.525 153.611 8.225 153.611 7.865C153.611 7.565 153.581 7.295 153.506 7.085C153.431 6.86 153.311 6.68 153.131 6.56C152.951 6.425 152.786 6.32 152.636 6.245C152.486 6.155 152.261 6.11 151.976 6.08C151.676 6.05 151.451 6.02 151.301 6.02C151.136 6.02 150.896 6.02 150.566 6.02H147.986ZM169.509 0.32V11H168.099V1.55H162.459V11H161.049V0.32H169.509ZM176.359 0.32L180.529 11H178.954L177.769 7.73H173.284L172.069 11H170.569L174.769 0.32H176.359ZM177.349 6.605L175.534 1.67L173.689 6.605H177.349ZM181.601 0.32L186.161 0.335C187.136 0.335 187.946 0.545 188.591 0.979999C189.236 1.4 189.566 2.075 189.566 3.005C189.566 3.53 189.416 3.995 189.131 4.415C188.846 4.835 188.471 5.12 187.991 5.3C188.651 5.45 189.146 5.75 189.506 6.23C189.866 6.695 190.046 7.28 190.046 7.985C190.046 9.995 188.696 11 185.996 11H181.601V0.32ZM182.981 1.535V4.91H185.516C185.801 4.91 186.041 4.895 186.251 4.88C186.461 4.865 186.686 4.835 186.956 4.775C187.211 4.715 187.421 4.625 187.571 4.505C187.721 4.385 187.856 4.22 187.976 4.01C188.096 3.785 188.141 3.515 188.141 3.215C188.141 2.9 188.096 2.63 187.991 2.42C187.901 2.21 187.781 2.045 187.631 1.925C187.496 1.805 187.301 1.73 187.061 1.67C186.821 1.61 186.596 1.565 186.401 1.55C186.206 1.535 185.951 1.535 185.651 1.535H182.981ZM182.981 6.02L182.966 9.83H185.786C186.146 9.83 186.431 9.815 186.641 9.8C186.866 9.785 187.121 9.74 187.391 9.68C187.661 9.605 187.886 9.5 188.036 9.365C188.201 9.23 188.336 9.035 188.441 8.78C188.561 8.525 188.606 8.225 188.606 7.865C188.606 7.565 188.576 7.295 188.501 7.085C188.426 6.86 188.306 6.68 188.126 6.56C187.946 6.425 187.781 6.32 187.631 6.245C187.481 6.155 187.256 6.11 186.971 6.08C186.671 6.05 186.446 6.02 186.296 6.02C186.131 6.02 185.891 6.02 185.561 6.02H182.981ZM199.265 0.32V1.55H193.28V4.895H198.875V6.08H193.28V9.77H199.34V11H191.87V0.32H199.265ZM208.914 0.32V11H207.504V1.55H203.559L203.349 7.565C203.304 8.69 203.079 9.575 202.659 10.235C202.239 10.895 201.654 11.225 200.874 11.225C200.544 11.225 200.214 11.165 199.854 11.015V9.815C200.004 9.92 200.259 9.965 200.619 9.965C200.904 9.965 201.129 9.905 201.309 9.77C201.489 9.635 201.639 9.32 201.774 8.84C201.909 8.36 201.984 7.7 202.014 6.83L202.209 0.32H208.914ZM78.84 15.32V26H76.5V17.315H73.635L73.485 21.845C73.38 24.755 72.39 26.21 70.515 26.21C69.99 26.21 69.555 26.15 69.195 26.03V24.14C69.435 24.26 69.705 24.32 70.02 24.32C70.38 24.32 70.665 24.155 70.875 23.825C71.07 23.495 71.19 22.82 71.22 21.815L71.4 15.32H78.84ZM89.9052 15.32V26H87.5652V18.59H87.5202L83.5002 26H80.8602V15.32H83.2002V22.715H83.2452L87.2652 15.32H89.9052ZM95.3534 21.89C94.0934 21.89 93.1484 21.605 92.5034 21.02C91.8434 20.435 91.5284 19.475 91.5284 18.155V15.32H93.8684V18.185C93.8684 18.83 93.9884 19.28 94.2434 19.55C94.4984 19.82 94.9334 19.94 95.5334 19.94C96.0134 19.94 96.7184 19.865 97.6484 19.7V15.32H99.9884V26H97.6484V21.59C96.6734 21.8 95.9084 21.89 95.3534 21.89ZM111.028 15.32V26H108.688V21.395H104.323V26H101.983V15.32H104.323V19.34H108.688V15.32H111.028ZM121.171 22.565C121.171 23.705 120.811 24.575 120.106 25.145C119.401 25.715 118.456 26 117.256 26H113.101V15.32H115.426V19.16H117.376C118.501 19.16 119.416 19.46 120.121 20.03C120.811 20.6 121.171 21.455 121.171 22.565ZM118.891 22.535C118.891 21.515 118.276 21.005 117.061 21.005H115.426V24.08H117.076C118.276 24.08 118.891 23.57 118.891 22.535ZM122.311 15.32H124.651V26H122.311V15.32ZM135.755 15.32V26H133.415V18.59H133.37L129.35 26H126.71V15.32H129.05V22.715H129.095L133.115 15.32H135.755ZM132.845 12.44H133.67C133.67 13.88 132.86 14.6 131.225 14.6C129.605 14.6 128.78 13.88 128.78 12.44H129.62C129.755 13.1 130.295 13.43 131.225 13.43C132.17 13.43 132.71 13.1 132.845 12.44ZM144.358 19.16H147.148C148.273 19.16 149.188 19.46 149.893 20.03C150.583 20.6 150.943 21.455 150.943 22.565C150.943 23.705 150.583 24.575 149.878 25.145C149.173 25.715 148.228 26 147.028 26H142.033V15.32H149.953V17.255H144.358V19.16ZM148.663 22.535C148.663 21.515 148.048 21.005 146.833 21.005H144.358V24.08H146.848C148.048 24.08 148.663 23.57 148.663 22.535ZM161.369 15.32V26H159.029V17.315H156.164L156.014 21.845C155.909 24.755 154.919 26.21 153.044 26.21C152.519 26.21 152.084 26.15 151.724 26.03V24.14C151.964 24.26 152.234 24.32 152.549 24.32C152.909 24.32 153.194 24.155 153.404 23.825C153.599 23.495 153.719 22.82 153.749 21.815L153.929 15.32H161.369ZM168.219 15.065C169.779 15.065 171.039 15.59 171.999 16.625C172.959 17.66 173.454 19.01 173.454 20.675C173.454 22.355 172.959 23.705 171.999 24.725C171.039 25.745 169.764 26.255 168.204 26.255C166.614 26.255 165.339 25.745 164.379 24.725C163.404 23.705 162.924 22.355 162.924 20.675C162.924 18.995 163.404 17.63 164.364 16.61C165.324 15.59 166.614 15.065 168.219 15.065ZM168.189 16.985C167.304 16.985 166.599 17.33 166.074 17.99C165.549 18.65 165.279 19.535 165.279 20.645C165.279 21.785 165.549 22.685 166.059 23.345C166.584 23.99 167.304 24.32 168.219 24.335C169.104 24.335 169.809 24.005 170.319 23.345C170.829 22.685 171.084 21.785 171.084 20.645C171.084 19.52 170.814 18.635 170.304 17.975C169.779 17.315 169.074 16.985 168.189 16.985ZM182.504 15.32V17.315H177.404V26H175.064V15.32H182.504Z" fill="white"/>
<defs>
<clipPath id="clip0_1_21">
<rect width="60" height="30" fill="white"/>
</clipPath>
</defs>
</svg>
