<svg width="20" height="18" viewBox="0 0 20 18" fill="none" xmlns="http://www.w3.org/2000/svg">
<path d="M18.3672 15.6973C18.5332 15.8633 18.5332 16.1289 18.3672 16.2617L17.6035 17.0254C17.4707 17.1914 17.2051 17.1914 17.0391 17.0254L13.0215 13.0078C12.9551 12.9082 12.9219 12.8086 12.9219 12.709V12.2773C11.6934 13.3066 10.1328 13.9375 8.40625 13.9375C4.58789 13.9375 1.5 10.8496 1.5 7.03125C1.5 3.24609 4.58789 0.125 8.40625 0.125C12.1914 0.125 15.3125 3.24609 15.3125 7.03125C15.3125 8.75781 14.6484 10.3516 13.6191 11.5469H14.0508C14.1504 11.5469 14.25 11.6133 14.3496 11.6797L18.3672 15.6973ZM8.40625 12.3438C11.3281 12.3438 13.7188 9.98633 13.7188 7.03125C13.7188 4.10938 11.3281 1.71875 8.40625 1.71875C5.45117 1.71875 3.09375 4.10938 3.09375 7.03125C3.09375 9.98633 5.45117 12.3438 8.40625 12.3438Z" fill="#111213"/>
</svg>
