<svg width="20" height="17" viewBox="0 0 20 17" fill="none" xmlns="http://www.w3.org/2000/svg">
<path d="M2.30775 16.4688C1.80258 16.4688 1.375 16.2828 1.025 15.9109C0.675 15.5391 0.5 15.0848 0.5 14.548V2.45198C0.5 1.91524 0.675 1.46094 1.025 1.08906C1.375 0.717188 1.80258 0.53125 2.30775 0.53125H17.6923C18.1974 0.53125 18.625 0.717188 18.975 1.08906C19.325 1.46094 19.5 1.91524 19.5 2.45198V14.548C19.5 15.0848 19.325 15.5391 18.975 15.9109C18.625 16.2828 18.1974 16.4688 17.6923 16.4688H2.30775ZM10 9.09261L2 3.65739V14.548C2 14.6435 2.02883 14.7218 2.0865 14.7831C2.14417 14.8444 2.21792 14.875 2.30775 14.875H17.6923C17.7821 14.875 17.8558 14.8444 17.9135 14.7831C17.9712 14.7218 18 14.6435 18 14.548V3.65739L10 9.09261ZM10 7.4375L17.8463 2.125H2.15375L10 7.4375ZM2 3.65739V2.125V14.548C2 14.6435 2.02883 14.7218 2.0865 14.7831C2.14417 14.8444 2.21792 14.875 2.30775 14.875H2V3.65739Z" fill="black"/>
</svg>
