<svg width="273" height="86" viewBox="0 0 273 86" fill="none" xmlns="http://www.w3.org/2000/svg">
<mask id="mask0_1470_3809" style="mask-type:alpha" maskUnits="userSpaceOnUse" x="0" y="0" width="273" height="86">
<rect width="273" height="86" fill="url(#paint0_linear_1470_3809)"/>
</mask>
<g mask="url(#mask0_1470_3809)">
<path d="M-121.492 45.572L-27.4026 270.805L103.998 -169.65L58.5759 -462.453C39.1091 -449.106 1.47322 -408.397 6.66437 -352.339C11.8555 -296.281 -8.47649 -207.189 -19.2914 -169.65L-121.492 45.572Z" fill="#4673FF"/>
<path d="M51.8088 -63.2798C13.347 -45.1264 -5.42609 144.307 -10.0049 236.754L74.1304 360.297L87.8668 128.339C91.8732 56.902 90.2706 -81.4331 51.8088 -63.2798Z" fill="#0B2496"/>
<path d="M67.3061 -33.8409C41.9769 68.1989 88.8359 211.89 115.432 270.981L235.748 253.686L257.277 -368.929L178.757 -431.623L106.569 -407.842C104.035 -325.692 92.6353 -135.881 67.3061 -33.8409Z" fill="#2848DB"/>
<path d="M165.155 213.699C119.327 249.009 79.7894 369.933 65.749 425.982L202.221 436.491L320.16 335.604L367.335 68.6736L360.596 -189.849L182.003 -183.544V-59.5368C195.482 16.8289 210.982 178.388 165.155 213.699Z" fill="#4673FF"/>
<path d="M239.344 -19.173C255.251 77.8385 306.389 181.966 331.389 246.642C331.389 246.642 472.311 -209.32 366.621 -209.321C260.932 -209.321 223.437 -116.185 239.344 -19.173Z" fill="#2848DB"/>
</g>
<defs>
<linearGradient id="paint0_linear_1470_3809" x1="1.03728e-06" y1="54.3585" x2="273" y2="54.3585" gradientUnits="userSpaceOnUse">
<stop stop-color="#F474F4"/>
<stop offset="0.497917" stop-color="#6A00FB"/>
<stop offset="1" stop-color="#0D0083"/>
</linearGradient>
</defs>
</svg>
